#!OML:ASF H:\Dans Jumps\Project 1\Capture day 1\Session 1\subject.ASF
:FULLY-SPECIFIED
:DEGREES
455
root 0.613771 17.4906 1.67057 6.68451 -1.17373 -1.28221
lowerback 3.29222 -0.182748 -1.30635
upperback 3.05501 -0.285432 1.8293
thorax 1.30603 -0.185701 2.61716
lowerneck -11.9062 0.0677321 -1.90971
upperneck 30.906 0.103838 1.44928
head 12.1233 0.00254039 0.892263
rclavicle -5.56597e-015 -1.78906e-015
rhumerus -17.0947 -3.91911 -86.914
rradius 35.4577
rwrist 19.6443
rhand -23.0213 -25.9721
rfingers 7.12502
rthumb 3.42249 -55.9244
lclavicle -5.56597e-015 -1.78906e-015
lhumerus -17.3214 -16.0996 90.5089
lradius 30.9658
lwrist 25.9683
lhand -26.9272 -7.78746
lfingers 7.12502
lthumb -0.349763 22.192
rfemur -23.8211 -3.42012 19.6678
rtibia 30.5197
rfoot -12.0744 -1.15796
rtoes 12.6516
lfemur -22.619 9.3913 -18.9476
ltibia 28.3172
lfoot -9.70086 4.08989
ltoes -4.21023
456
root 0.610661 17.4966 1.69287 6.62323 -1.22934 -1.27982
lowerback 3.18819 -0.177105 -1.355
upperback 3.07999 -0.27851 1.8153
thorax 1.38977 -0.184112 2.62954
lowerneck -11.9372 0.0911018 -1.87228
upperneck 31.1082 0.15116 1.3746
head 12.2109 0.0174289 0.865965
rclavicle 3.03147e-015 7.55382e-015
rhumerus -16.9718 -3.78945 -86.9885
rradius 35.4443
rwrist 19.9956
rhand -22.9381 -25.938
rfingers 7.12502
rthumb 3.50285 -55.8889
lclavicle 3.03147e-015 7.55382e-015
lhumerus -17.0801 -16.049 90.2648
lradius 30.7154
lwrist 25.2465
lhand -26.9741 -7.60522
lfingers 7.12502
lthumb -0.395086 22.3742
rfemur -23.561 -3.25515 19.6526
rtibia 30.307
rfoot -12.0356 -1.27576
rtoes 12.5779
lfemur -22.3275 9.33159 -18.9067
ltibia 28.0922
lfoot -9.66446 4.19788
ltoes -4.18534
457
root 0.607716 17.502 1.71463 6.5514 -1.26632 -1.28943
lowerback 3.10176 -0.175499 -1.38267
upperback 3.10891 -0.276587 1.80463
thorax 1.46791 -0.184683 2.63372
lowerneck -11.9602 0.110399 -1.8428
upperneck 31.3141 0.190636 1.31276
head 12.2989 0.0294198 0.844751
rclavicle 6.95746e-016 1.59028e-015
rhumerus -16.8683 -3.69861 -87.048
rradius 35.4079
rwrist 20.3984
rhand -22.8044 -25.9135
rfingers 7.12502
rthumb 3.63203 -55.8623
lclavicle 6.95746e-016 1.59028e-015
lhumerus -16.8172 -15.8453 90.0161
lradius 30.3779
lwrist 24.4346
lhand -27.0108 -7.39283
lfingers 7.12502
lthumb -0.430567 22.5865
rfemur -23.2948 -3.10225 19.6502
rtibia 30.107
rfoot -12.0046 -1.39647
rtoes 12.5007
lfemur -22.0424 9.28114 -18.8534
ltibia 27.8922
lfoot -9.64553 4.28021
ltoes -4.1445
458
root 0.604861 17.5069 1.73589 6.47153 -1.29025 -1.30828
lowerback 3.02726 -0.174415 -1.39212
upperback 3.14204 -0.27508 1.79542
thorax 1.54362 -0.185161 2.62921
lowerneck -11.9725 0.122819 -1.82127
upperneck 31.5172 0.218189 1.26365
head 12.3842 0.0367557 0.827985
rclavicle 1.68967e-015 -1.27222e-014
rhumerus -16.7835 -3.6541 -87.0946
rradius 35.3446
rwrist 20.8204
rhand -22.6452 -25.8989
rfingers 7.12502
rthumb 3.78578 -55.845
lclavicle 1.68967e-015 -1.27222e-014
lhumerus -16.542 -15.5032 89.7674
lradius 29.9707
lwrist 23.5548
lhand -27.062 -7.17948
lfingers 7.12502
lthumb -0.479931 22.7997
rfemur -23.0258 -2.95701 19.6575
rtibia 29.9189
rfoot -11.9797 -1.51852
rtoes 12.4386
lfemur -21.7626 9.24603 -18.791
ltibia 27.7093
lfoot -9.63931 4.33546
ltoes -4.09768
459
root 0.601987 17.5116 1.75672 6.38723 -1.30324 -1.3266
lowerback 2.96301 -0.172986 -1.39593
upperback 3.17579 -0.273049 1.78622
thorax 1.6142 -0.185218 2.6216
lowerneck -11.9752 0.126893 -1.80528
upperneck 31.7177 0.232185 1.22357
head 12.467 0.0385601 0.813628
rclavicle 4.96962e-016 -4.17448e-015
rhumerus -16.7274 -3.65251 -87.1272
rradius 35.2635
rwrist 21.2387
rhand -22.4852 -25.8881
rfingers 7.12502
rthumb 3.94019 -55.8314
lclavicle 4.96962e-016 -4.17448e-015
lhumerus -16.2666 -15.041 89.5246
lradius 29.5089
lwrist 22.632
lhand -27.1571 -7.00457
lfingers 7.12502
lthumb -0.571833 22.9744
rfemur -22.7576 -2.82122 19.6642
rtibia 29.7414
rfoot -11.9625 -1.63789
rtoes 12.4113
lfemur -21.4882 9.22487 -18.7299
ltibia 27.5364
lfoot -9.64237 4.36331
ltoes -4.04266
460
root 0.599155 17.516 1.77726 6.30329 -1.30533 -1.33987
lowerback 2.90617 -0.171233 -1.39787
upperback 3.20654 -0.270539 1.77597
thorax 1.67749 -0.184872 2.61187
lowerneck -11.9596 0.124614 -1.78362
upperneck 31.9066 0.236174 1.18091
head 12.5418 0.0363282 0.795659
rclavicle -6.80837e-015 -7.95139e-015
rhumerus -16.7077 -3.68921 -87.1457
rradius 35.1705
rwrist 21.6341
rhand -22.3332 -25.8867
rfingers 7.12502
rthumb 4.08703 -55.8272
lclavicle -6.80837e-015 -7.95139e-015
lhumerus -16.0057 -14.4689 89.291
lradius 29.0167
lwrist 21.6824
lhand -27.2756 -6.81883
lfingers 7.12502
lthumb -0.686263 23.1598
rfemur -22.4946 -2.70104 19.6661
rtibia 29.5741
rfoot -11.9537 -1.74917
rtoes 12.4038
lfemur -21.2199 9.21509 -18.6759
ltibia 27.366
lfoot -9.65084 4.3675
ltoes -3.98511
